<?xml version="1.0" encoding="UTF-8"?><svg id="Calque_1" xmlns="http://www.w3.org/2000/svg" viewBox="0 0 512 512"><defs><style>.cls-1{fill:#fff;}</style></defs><path class="cls-1" d="M398.87,308.18c-7.4-14.69-18.07-26.51-32.03-35.46-8.12-5.42-24.95-12.37-44.94-13.44-27.98-1.5-47.18,30.5-64.77,25.7-1-.33-68.76-29.13-69.98-29.16-.75-.02-.78,.24-.74,.39,.01,.02,.02,.05,.03,.07,.01,.02,.02,.03,.02,.03h0c.18,.45,.29,.95,.29,1.47,0,2.21-1.79,4-4,4s-4-1.79-4-4,1.63-3.81,3.69-3.97l-.02-.02c0-.07,13.43-.06,31.26-.21l32.42-.26,.49,1.09c.24,.59,1,1.7,1.63,2.43,4.8,5.47,13.64,5.05,17.77-.84,3.55-5.09,2.41-12.22-2.51-15.74-4.85-3.49-11.55-2.72-15.37,1.81-.62,.74-1.37,1.86-1.59,2.45l-.48,1.1-32.42,.26c-17.83,.15-31.02,.2-31.02,.13h.01c-2.14-.09-3.86-1.84-3.86-4s1.79-4,4-4,4,1.79,4,4c0,.5-.1,.98-.27,1.42h0c.11-.05-.44,1.4,1.11,.56,.73-.4,66.81-30.58,67.95-31,19.37-4.37,41.57,21.16,68.09,22.54,42.3-1.75,61.49-27.34,71.5-48.43,6.14-12.91,9.22-26.66,9.22-41.25s-3.02-28.54-9.06-41.25c-6.04-12.7-14.79-23.54-26.25-32.5-22.78-17.84-54.93-27.53-96.39-29.11v-.26H125.47c-7.5,0-13.28,1.41-17.34,4.22s-6.09,6.83-6.09,12.03c0,8.54,4.16,14.17,12.5,16.87,6.87,2.3,10.88,3.7,12.03,4.22,1.14,.52,2.34,1.72,3.59,3.59,2.5,3.33,3.75,8.65,3.75,15.94V412.39c0,7.29-1.25,12.61-3.75,15.94-1.25,1.87-2.45,3.08-3.59,3.59-1.15,.52-5.16,1.93-12.03,4.22-8.33,2.71-12.5,8.33-12.5,16.87,0,5.21,2.03,9.22,6.09,12.03s9.84,4.22,17.34,4.22h147.17v-.14c21.4-.53,39.11-2.61,53.11-6.27,16.35-4.27,31.29-11.61,44.84-22.03,26.25-20,39.37-47.81,39.37-83.43,0-18.12-3.7-34.53-11.09-49.21Zm-144.96-61.18c1.03-1.26,2.32-1.63,3.92-1.16,3.56,1.05,3.6,5.96,.06,7.07-3.63,1.12-6.41-2.96-3.98-5.9Z"/></svg>